<svg xmlns="http://www.w3.org/2000/svg" xmlns:xlink="http://www.w3.org/1999/xlink" version="1.1" x="0px" y="0px" viewBox="0 0 256 256" enable-background="new 0 0 256 256" xml:space="preserve">
<metadata fill="#afff00"> Svg Vector Icons : http://www.onlinewebfonts.com/icon </metadata>
<g><g><path fill="#afff00" d="M242.7,121.3L222.5,105c-1.1-0.9-1.7-3-1.2-4.3l9.3-24.2c1-2.6,0.8-5.3-0.5-7.5c-1.3-2.2-3.6-3.7-6.3-4.2l-25.6-4c-1.4-0.2-2.9-1.8-3.2-3.2l-4-25.6c-0.7-4.3-4.1-7.4-8.4-7.4c-1.1,0-2.2,0.2-3.3,0.6l-24.2,9.3c-0.3,0.1-0.7,0.2-1.1,0.2c-1.3,0-2.6-0.6-3.2-1.3l-16.3-20.1c-1.7-2.1-4.2-3.3-6.7-3.3c-2.6,0-5,1.2-6.7,3.3L105,33.5c-0.6,0.8-2,1.3-3.2,1.3c-0.4,0-0.8-0.1-1.1-0.2l-24.2-9.3c-1.1-0.4-2.2-0.6-3.3-0.6c-4.2,0-7.7,3-8.4,7.4l-4,25.6c-0.2,1.4-1.8,2.9-3.2,3.2l-25.6,4c-2.7,0.4-5,2-6.3,4.2c-1.3,2.2-1.5,5-0.5,7.5l9.3,24.2c0.5,1.3-0.1,3.4-1.2,4.3l-20.1,16.3c-2.1,1.7-3.3,4.2-3.3,6.7c0,2.6,1.2,5,3.3,6.7L33.5,151c1.1,0.9,1.7,3,1.2,4.3l-9.3,24.2c-1,2.6-0.8,5.3,0.5,7.5c1.3,2.2,3.6,3.7,6.3,4.2l25.6,4c1.4,0.2,2.9,1.8,3.2,3.2l4,25.6c0.7,4.3,4.1,7.4,8.4,7.4c1.1,0,2.2-0.2,3.3-0.6l24.2-9.3c0.3-0.1,0.7-0.2,1.1-0.2c1.3,0,2.6,0.6,3.2,1.3l16.3,20.1c1.7,2.1,4.2,3.3,6.7,3.3c2.6,0,5-1.2,6.7-3.3l16.3-20.1c0.6-0.8,2-1.3,3.2-1.3c0.4,0,0.8,0.1,1.1,0.2l24.2,9.3c1.1,0.4,2.2,0.6,3.3,0.6c4.2,0,7.7-3,8.4-7.4l4-25.6c0.2-1.4,1.8-2.9,3.2-3.2l25.6-4c2.7-0.4,5-1.9,6.3-4.2c1.3-2.2,1.5-5,0.5-7.5l-9.3-24.2c-0.5-1.3,0.1-3.4,1.2-4.3l20.1-16.3c2.1-1.7,3.3-4.2,3.3-6.7C246,125.4,244.8,123,242.7,121.3z M237.6,128.4l-20.1,16.3c-3.8,3.1-5.4,8.9-3.6,13.5l9.3,24.2c0.1,0.3,0.1,0.5,0.1,0.6c0,0-0.2,0.2-0.5,0.2l-25.6,4c-4.9,0.8-9.1,5-9.9,9.9l-4,25.6c-0.1,0.5-0.3,0.5-0.4,0.5c-0.1,0-0.2,0-0.4-0.1l-24.2-9.3c-1.2-0.5-2.6-0.7-4-0.7c-3.7,0-7.3,1.7-9.5,4.3l-16.3,20.1c-0.2,0.3-0.4,0.3-0.4,0.3c-0.1,0-0.2-0.1-0.4-0.3l-16.3-20.1c-2.2-2.7-5.8-4.3-9.5-4.3c-1.4,0-2.8,0.2-4,0.7l-24.2,9.3c-0.2,0.1-0.3,0.1-0.4,0.1c-0.1,0-0.3,0-0.4-0.5l-4-25.6c-0.8-4.9-5-9.1-9.9-9.9l-25.6-4c-0.3,0-0.5-0.2-0.5-0.2c0-0.1,0-0.3,0.1-0.6l9.3-24.2c1.8-4.6,0.2-10.4-3.6-13.5l-20.1-16.3c-0.2-0.2-0.3-0.4-0.3-0.4c0-0.1,0.1-0.3,0.3-0.4l20.1-16.3c3.8-3.1,5.4-8.9,3.6-13.5l-9.3-24.2c-0.1-0.3-0.1-0.5-0.1-0.6c0-0.1,0.2-0.2,0.5-0.2l25.6-4c4.9-0.8,9.1-5,9.9-9.9l4-25.6c0.1-0.5,0.3-0.5,0.4-0.5c0.1,0,0.2,0,0.4,0.1l24.2,9.3c1.2,0.5,2.6,0.7,4,0.7c3.7,0,7.3-1.7,9.5-4.3l16.3-20.1c0.2-0.3,0.4-0.3,0.4-0.3c0.1,0,0.2,0.1,0.4,0.3l16.3,20.1c2.2,2.7,5.8,4.3,9.5,4.3c1.4,0,2.8-0.2,4-0.7l24.2-9.3c0.1,0,0.3-0.1,0.4-0.1c0.1,0,0.3,0,0.4,0.5l4,25.6c0.8,4.9,5,9.1,9.9,9.9l25.6,4c0.3,0,0.5,0.2,0.5,0.2c0,0,0,0.2-0.1,0.6l-9.3,24.2c-1.8,4.6-0.2,10.4,3.6,13.5l20.1,16.3c0.3,0.2,0.3,0.4,0.3,0.4C237.9,128.1,237.8,128.2,237.6,128.4z"/><path fill="#afff00" d="M162.3,92.5c-1.6-1.6-4.1-1.6-5.7,0L94.1,155c-1.6,1.6-1.6,4.1,0,5.7c0.8,0.8,1.8,1.2,2.9,1.2s2.1-0.4,2.9-1.2l62.5-62.5C163.9,96.6,163.9,94.1,162.3,92.5z"/><path fill="#afff00" d="M130.3,106.3c0-12.2-10-22.2-22.2-22.2c-12.2,0-22.2,10-22.2,22.2s10,22.2,22.2,22.2C120.4,128.5,130.3,118.5,130.3,106.3z M94,106.3c0-7.8,6.3-14.1,14.1-14.1c7.8,0,14.1,6.3,14.1,14.1s-6.3,14.1-14.1,14.1C100.4,120.4,94,114.1,94,106.3z"/><path fill="#afff00" d="M148.6,124.5c-12.2,0-22.2,10-22.2,22.2c0,12.2,10,22.2,22.2,22.2c12.2,0,22.2-10,22.2-22.2C170.8,134.5,160.8,124.5,148.6,124.5z M148.6,160.8c-7.8,0-14.1-6.3-14.1-14.1c0-7.8,6.3-14.1,14.1-14.1c7.8,0,14.1,6.3,14.1,14.1C162.7,154.5,156.3,160.8,148.6,160.8z"/></g></g>
</svg>